<?xml version="1.0"?><svg xmlns="http://www.w3.org/2000/svg" viewBox="0 0 30 30">    <path d="M 3 4 L 3 6.8320312 A 1.0001 1.0001 0 0 0 3 7.1582031 L 3 9 L 6 11 L 6 8 L 9 8 L 9 12.201172 L 13.064453 15.681641 L 12 22 L 19 22 L 19.8125 17.941406 L 22.921875 22 L 26 22 L 21.246094 15.396484 C 20.717094 14.662484 19.950219 14.134297 19.074219 13.904297 L 14.78125 12.777344 L 11.507812 10.787109 L 11.132812 7.9921875 A 1.0001 1.0001 0 0 0 11 6 L 6 6 L 6 4 L 3 4 z M 19 6 A 3 3 0 0 0 16 9 A 3 3 0 0 0 19 12 A 3 3 0 0 0 22 9 A 3 3 0 0 0 19 6 z M 3 24 A 1.0001 1.0001 0 1 0 3 26 L 27 26 A 1.0001 1.0001 0 1 0 27 24 L 3 24 z"/></svg>
