<svg xmlns="http://www.w3.org/2000/svg" viewBox="0 0 30 30"><path d="M 5 3 C 3.895 3 3 3.895 3 5 L 3 25 C 3 26.105 3.895 27 5 27 L 19 27 C 20.105 27 21 26.105 21 25 L 21 16 L 14 16 C 13.448 16 13 15.552 13 15 C 13 14.448 13.448 14 14 14 L 21 14 L 21 9.5 C 21 9.235 20.895031 8.9799688 20.707031 8.7929688 L 15.207031 3.2929688 C 15.019031 3.1049688 14.765 3 14.5 3 L 5 3 z M 21 14 L 21 16 L 26.585938 16 L 24.292969 18.292969 A 1.0001 1.0001 0 1 0 25.707031 19.707031 L 29.707031 15.707031 A 1.0001 1.0001 0 0 0 29.707031 14.292969 L 25.707031 10.292969 A 1.0001 1.0001 0 0 0 24.990234 9.9902344 A 1.0001 1.0001 0 0 0 24.292969 11.707031 L 26.585938 14 L 21 14 z"/></svg>