<?xml version="1.0" encoding="utf-8"?><svg xmlns="http://www.w3.org/2000/svg" viewBox="0 0 30 30"><defs><symbol id="build"><path d="M 3 4 L 3 6.8320312 A 1.0001 1.0001 0 0 0 3 7.1582031 L 3 9 L 6 11 L 6 8 L 9 8 L 9 12.201172 L 13.064453 15.681641 L 12 22 L 19 22 L 19.8125 17.941406 L 22.921875 22 L 26 22 L 21.246094 15.396484 C 20.717094 14.662484 19.950219 14.134297 19.074219 13.904297 L 14.78125 12.777344 L 11.507812 10.787109 L 11.132812 7.9921875 A 1.0001 1.0001 0 0 0 11 6 L 6 6 L 6 4 L 3 4 z M 19 6 A 3 3 0 0 0 16 9 A 3 3 0 0 0 19 12 A 3 3 0 0 0 22 9 A 3 3 0 0 0 19 6 z M 3 24 A 1.0001 1.0001 0 1 0 3 26 L 27 26 A 1.0001 1.0001 0 1 0 27 24 L 3 24 z" /></symbol><symbol id="close"><path d="M 7 4 C 6.744125 4 6.4879687 4.0974687 6.2929688 4.2929688 L 4.2929688 6.2929688 C 3.9019687 6.6839688 3.9019687 7.3170313 4.2929688 7.7070312 L 11.585938 15 L 4.2929688 22.292969 C 3.9019687 22.683969 3.9019687 23.317031 4.2929688 23.707031 L 6.2929688 25.707031 C 6.6839688 26.098031 7.3170313 26.098031 7.7070312 25.707031 L 15 18.414062 L 22.292969 25.707031 C 22.682969 26.098031 23.317031 26.098031 23.707031 25.707031 L 25.707031 23.707031 C 26.098031 23.316031 26.098031 22.682969 25.707031 22.292969 L 18.414062 15 L 25.707031 7.7070312 C 26.098031 7.3170312 26.098031 6.6829688 25.707031 6.2929688 L 23.707031 4.2929688 C 23.316031 3.9019687 22.682969 3.9019687 22.292969 4.2929688 L 15 11.585938 L 7.7070312 4.2929688 C 7.5115312 4.0974687 7.255875 4 7 4 z" /></symbol><symbol id="documentation"><path d="M 8 3 C 6.343 3 5 4.343 5 6 L 5 24 A 1.0001 1.0001 0 0 0 5.2949219 24.708984 C 5.6477556 25.972969 6.6303589 27 8 27 L 24 27 A 1.0001 1.0001 0 1 0 24 25 L 8 25 C 7.4349698 25 7 24.56503 7 24 C 7 23.43497 7.4349698 23 8 23 L 23 23 C 24.105 23 25 22.105 25 21 L 25 5 C 25 3.895 24.105 3 23 3 L 8 3 z M 12 9 L 19 9 C 19.552 9 20 9.448 20 10 C 20 10.552 19.552 11 19 11 L 12 11 C 11.448 11 11 10.552 11 10 C 11 9.448 11.448 9 12 9 z" /></symbol><symbol id="download"><path d="M 15 1 C 14.448 1 14 1.448 14 2 L 14 6 L 16 6 L 16 2 C 16 1.448 15.552 1 15 1 z M 16 6 L 16 18.585938 L 18.292969 16.292969 C 18.683969 15.901969 19.316031 15.901969 19.707031 16.292969 C 20.098031 16.683969 20.098031 17.316031 19.707031 17.707031 L 15.707031 21.707031 C 15.512031 21.902031 15.256 22 15 22 C 14.744 22 14.487969 21.902031 14.292969 21.707031 L 10.292969 17.707031 C 9.9019687 17.316031 9.9019688 16.683969 10.292969 16.292969 C 10.683969 15.901969 11.316031 15.901969 11.707031 16.292969 L 14 18.585938 L 14 6 L 6 6 C 4.895 6 4 6.895 4 8 L 4 25 C 4 26.105 4.895 27 6 27 L 24 27 C 25.105 27 26 26.105 26 25 L 26 8 C 26 6.895 25.105 6 24 6 L 16 6 z" /></symbol><symbol id="edit-row"><path d="M 20.853516 2 C 20.590391 2 20.327953 2.1017344 20.126953 2.3027344 L 19.400391 3.0292969 L 21.970703 5.5996094 L 22.697266 4.8730469 C 23.099266 4.4720469 23.099266 3.8219219 22.697266 3.4199219 L 21.580078 2.3027344 C 21.379578 2.1017344 21.116641 2 20.853516 2 z M 18.371094 4.0566406 L 10.542969 11.886719 L 11.314453 12.142578 L 11.570312 13.429688 L 12.857422 13.685547 L 13.113281 14.457031 L 20.943359 6.6289062 L 18.371094 4.0566406 z M 3 8 C 1.897 8 1 8.897 1 10 L 1 20 C 1 21.103 1.897 22 3 22 L 27 22 C 28.103 22 29 21.103 29 20 L 29 10 C 29 8.897 28.103 8 27 8 L 22 8 L 20 10 L 27 10 L 27 20 L 3 20 L 3 10 L 10 10 L 12 8 L 3 8 z M 9.5917969 14.021484 L 9.0195312 15.640625 A 0.257 0.257 0 0 1 9.0195312 15.642578 A 0.257 0.257 0 0 0 9.0175781 15.648438 L 9.015625 15.654297 A 0.257 0.257 0 0 0 9 15.742188 A 0.257 0.257 0 0 0 9.2578125 16 A 0.257 0.257 0 0 0 9.3554688 15.980469 L 10.978516 15.40625 L 9.5917969 14.021484 z" /></symbol><symbol id="edit"><path d="M 22.828125 3 C 22.316375 3 21.804562 3.1954375 21.414062 3.5859375 L 19 6 L 24 11 L 26.414062 8.5859375 C 27.195062 7.8049375 27.195062 6.5388125 26.414062 5.7578125 L 24.242188 3.5859375 C 23.851688 3.1954375 23.339875 3 22.828125 3 z M 17 8 L 5.2597656 19.740234 C 5.2597656 19.740234 6.1775313 19.658 6.5195312 20 C 6.8615312 20.342 6.58 22.58 7 23 C 7.42 23.42 9.6438906 23.124359 9.9628906 23.443359 C 10.281891 23.762359 10.259766 24.740234 10.259766 24.740234 L 22 13 L 17 8 z M 4 23 L 3.0566406 25.671875 A 1 1 0 0 0 3 26 A 1 1 0 0 0 4 27 A 1 1 0 0 0 4.328125 26.943359 A 1 1 0 0 0 4.3378906 26.939453 L 4.3632812 26.931641 A 1 1 0 0 0 4.3691406 26.927734 L 7 26 L 5.5 24.5 L 4 23 z" /></symbol><symbol id="erase"><path d="M 19 2.015625 C 18.117477 2.015625 17.235919 2.3500183 16.568359 3.0175781 L 3.0195312 16.568359 C 1.6844117 17.903479 1.6844117 20.098474 3.0195312 21.433594 L 7.5683594 25.982422 C 8.1585464 26.572609 8.9178476 26.88677 9.6953125 26.955078 A 1.0001 1.0001 0 0 0 10 27 L 18 27 A 1.0001 1.0001 0 1 0 18 25 L 13.414062 25 L 25.982422 12.431641 C 27.317541 11.096521 27.317541 8.901526 25.982422 7.5664062 L 21.433594 3.0175781 C 20.766034 2.3500183 19.882523 2.015625 19 2.015625 z M 10.707031 11.707031 L 17.292969 18.292969 L 11.017578 24.568359 C 10.44645 25.139487 9.5535496 25.139487 8.9824219 24.568359 L 4.4335938 20.019531 C 3.8627133 19.448651 3.8627133 18.553302 4.4335938 17.982422 L 10.707031 11.707031 z M 22 25 A 1 1 0 0 0 21 26 A 1 1 0 0 0 22 27 A 1 1 0 0 0 23 26 A 1 1 0 0 0 22 25 z M 26 25 A 1 1 0 0 0 25 26 A 1 1 0 0 0 26 27 A 1 1 0 0 0 27 26 A 1 1 0 0 0 26 25 z" /></symbol><symbol id="export"><path d="M 5 3 C 3.895 3 3 3.895 3 5 L 3 25 C 3 26.105 3.895 27 5 27 L 19 27 C 20.105 27 21 26.105 21 25 L 21 16 L 14 16 C 13.448 16 13 15.552 13 15 C 13 14.448 13.448 14 14 14 L 21 14 L 21 9.5 C 21 9.235 20.895031 8.9799688 20.707031 8.7929688 L 15.207031 3.2929688 C 15.019031 3.1049688 14.765 3 14.5 3 L 5 3 z M 21 14 L 21 16 L 26.585938 16 L 24.292969 18.292969 A 1.0001 1.0001 0 1 0 25.707031 19.707031 L 29.707031 15.707031 A 1.0001 1.0001 0 0 0 29.707031 14.292969 L 25.707031 10.292969 A 1.0001 1.0001 0 0 0 24.990234 9.9902344 A 1.0001 1.0001 0 0 0 24.292969 11.707031 L 26.585938 14 L 21 14 z" /></symbol><symbol id="files"><path d="M 4 3 C 2.895 3 2 3.895 2 5 L 2 8 L 2 23 C 2 24.105 2.895 25 4 25 L 5.28125 25 C 5.630903 25.592739 6.2711814 26 7 26 L 10 26 C 10.728819 26 11.369097 25.592739 11.71875 25 L 18.28125 25 C 18.630903 25.592739 19.271181 26 20 26 L 23 26 C 23.728819 26 24.369097 25.592739 24.71875 25 L 26 25 C 27.105 25 28 24.105 28 23 L 28 7 C 28 5.895 27.105 5 26 5 L 11.199219 5 L 10.582031 3.9707031 C 10.221031 3.3687031 9.5701875 3 8.8671875 3 L 4 3 z M 8 16 L 22 16 C 22.56503 16 23 16.43497 23 17 L 23 24 L 20 24 L 20 20 A 1.0001 1.0001 0 0 0 19 19 L 11 19 A 1.0001 1.0001 0 0 0 10 20 L 10 24 L 7 24 L 7 17 C 7 16.43497 7.4349698 16 8 16 z" /></symbol><symbol id="full-screen"><path d="M 6 4 C 4.9069372 4 4 4.9069372 4 6 L 4 10 A 1.0001 1.0001 0 1 0 6 10 L 6 6 L 10 6 A 1.0001 1.0001 0 1 0 10 4 L 6 4 z M 20 4 A 1.0001 1.0001 0 1 0 20 6 L 24 6 L 24 10 A 1.0001 1.0001 0 1 0 26 10 L 26 6 C 26 4.9069372 25.093063 4 24 4 L 20 4 z M 4.984375 18.986328 A 1.0001 1.0001 0 0 0 4 20 L 4 24 C 4 25.093063 4.9069372 26 6 26 L 10 26 A 1.0001 1.0001 0 1 0 10 24 L 6 24 L 6 20 A 1.0001 1.0001 0 0 0 4.984375 18.986328 z M 24.984375 18.986328 A 1.0001 1.0001 0 0 0 24 20 L 24 24 L 20 24 A 1.0001 1.0001 0 1 0 20 26 L 24 26 C 25.093063 26 26 25.093063 26 24 L 26 20 A 1.0001 1.0001 0 0 0 24.984375 18.986328 z" /></symbol><symbol id="import"><path d="M 8 3 C 6.895 3 6 3.895 6 5 L 6 25 C 6 26.105 6.895 27 8 27 L 22 27 C 23.105 27 24 26.105 24 25 L 24 16 L 15.414062 16 L 17.707031 18.292969 C 18.098031 18.683969 18.098031 19.316031 17.707031 19.707031 C 17.512031 19.902031 17.256 20 17 20 C 16.744 20 16.487969 19.902031 16.292969 19.707031 L 12.292969 15.707031 C 11.901969 15.316031 11.901969 14.683969 12.292969 14.292969 L 16.292969 10.292969 C 16.683969 9.9019687 17.316031 9.9019687 17.707031 10.292969 C 18.098031 10.683969 18.098031 11.316031 17.707031 11.707031 L 15.414062 14 L 24 14 L 24 9.5 C 24 9.235 23.895031 8.9799688 23.707031 8.7929688 L 18.207031 3.2929688 C 18.019031 3.1049688 17.765 3 17.5 3 L 8 3 z M 24 14 L 24 16 L 28 16 C 28.552 16 29 15.552 29 15 C 29 14.448 28.552 14 28 14 L 24 14 z" /></symbol><symbol id="loading"><path d="M 15 3 C 8.3845336 3 3 8.3845336 3 15 A 1.0001 1.0001 0 1 0 5 15 C 5 9.4654664 9.4654664 5 15 5 C 20.534534 5 25 9.4654664 25 15 A 1.0001 1.0001 0 1 0 27 15 C 27 8.3845336 21.615466 3 15 3 z M 4.7285156 17.910156 L 3.9277344 18.3125 L 3.7695312 19.193359 L 4.3808594 19.847656 L 4.7285156 19.910156 L 5.5292969 19.507812 L 5.6875 18.626953 L 5.0761719 17.972656 L 4.7285156 17.910156 z M 24.089844 20.15625 L 23.289062 20.556641 L 23.130859 21.439453 L 23.742188 22.09375 L 24.089844 22.15625 L 24.890625 21.753906 L 25.048828 20.873047 L 24.4375 20.21875 L 24.089844 20.15625 z M 6.7929688 21.306641 L 5.9921875 21.708984 L 5.8339844 22.589844 L 6.4472656 23.244141 L 6.7929688 23.306641 L 7.59375 22.904297 L 7.7519531 22.023438 L 7.140625 21.369141 L 6.7929688 21.306641 z M 21.304688 22.988281 L 20.503906 23.390625 L 20.345703 24.271484 L 20.957031 24.925781 L 21.304688 24.988281 L 22.105469 24.585938 L 22.263672 23.705078 L 21.650391 23.050781 L 21.304688 22.988281 z M 9.9277344 23.753906 L 9.125 24.15625 L 8.96875 25.037109 L 9.5800781 25.691406 L 9.9277344 25.753906 L 10.728516 25.353516 L 10.886719 24.470703 L 10.273438 23.816406 L 9.9277344 23.753906 z M 17.697266 24.660156 L 16.896484 25.0625 L 16.738281 25.945312 L 17.349609 26.599609 L 17.697266 26.660156 L 18.498047 26.259766 L 18.65625 25.376953 L 18.044922 24.722656 L 17.697266 24.660156 z M 13.728516 24.919922 L 12.927734 25.322266 L 12.769531 26.205078 L 13.382812 26.859375 L 13.728516 26.919922 L 14.529297 26.519531 L 14.6875 25.636719 L 14.076172 24.982422 L 13.728516 24.919922 z" /></symbol><symbol id="log"><path d="M 4 4 C 2.895 4 2 4.895 2 6 L 2 7 L 2 10 L 2 26 L 16.171875 26 L 18.171875 24 L 4 24 L 4 10 L 26 10 L 26 16.388672 C 26.457 16.144672 26.963094 16 27.496094 16 C 27.667094 16 27.835 16.022828 28 16.048828 L 28 9 L 28 6 C 28 4.895 27.105 4 26 4 L 4 4 z M 8 13 A 1 1 0 0 0 7 14 A 1 1 0 0 0 8 15 A 1 1 0 0 0 9 14 A 1 1 0 0 0 8 13 z M 12 13 C 11.448 13 11 13.448 11 14 C 11 14.552 11.448 15 12 15 L 21 15 C 21.552 15 22 14.552 22 14 C 22 13.448 21.552 13 21 13 L 12 13 z M 8 17 A 1 1 0 0 0 7 18 A 1 1 0 0 0 8 19 A 1 1 0 0 0 9 18 A 1 1 0 0 0 8 17 z M 12 17 C 11.448 17 11 17.448 11 18 C 11 18.552 11.448 19 12 19 L 21 19 C 21.552 19 22 18.552 22 18 C 22 17.448 21.552 17 21 17 L 12 17 z M 27.496094 18 C 27.189094 18 26.882937 18.117062 26.648438 18.351562 L 25.800781 19.199219 L 28.800781 22.199219 L 29.648438 21.351562 C 30.117438 20.882562 30.117438 20.123297 29.648438 19.654297 L 28.345703 18.351562 C 28.111203 18.117062 27.803094 18 27.496094 18 z M 24.599609 20.400391 L 19.800781 25.199219 L 20.699219 25.5 L 21 27 L 22.5 27.300781 L 22.800781 28.199219 L 27.599609 23.400391 L 24.599609 20.400391 z M 28 25.828125 L 27.828125 26 L 28 26 L 28 25.828125 z M 18.691406 27.691406 L 18.025391 29.580078 A 0.30000001 0.30000001 0 0 0 18.023438 29.583984 L 18.023438 29.585938 A 0.30000001 0.30000001 0 0 0 18 29.699219 A 0.30000001 0.30000001 0 0 0 18.300781 30 A 0.30000001 0.30000001 0 0 0 18.40625 29.980469 L 18.408203 29.980469 L 20.308594 29.308594 L 18.691406 27.691406 z" /></symbol><symbol id="memory"><path d="M21,5H11C9.895,5,9,5.895,9,7v8l-1.414,1.414C7.211,16.789,7,17.298,7,17.828V23c0,1.105,0.895,2,2,2h12 c1.105,0,2-0.895,2-2V7C23,5.895,22.105,5,21,5z M21,11h-2V7h2V11z M17,11h-2V7h2V11z M13,11h-2V7h2V11z" /></symbol><symbol id="minimize"><path d="M 5 13 A 2.0002 2.0002 0 1 0 5 17 L 25 17 A 2.0002 2.0002 0 1 0 25 13 L 5 13 z" /></symbol><symbol id="next"><path d="M 7 6 A 1 1 0 0 0 6 7 A 1 1 0 0 0 6 7.0039062 L 6 15 L 6 22.996094 A 1 1 0 0 0 6 23 A 1 1 0 0 0 7 24 A 1 1 0 0 0 7.5917969 23.804688 L 7.59375 23.804688 A 1 1 0 0 0 7.6210938 23.783203 L 18.541016 15.841797 A 1 1 0 0 0 19 15 A 1 1 0 0 0 18.556641 14.169922 L 7.59375 6.1953125 A 1 1 0 0 0 7 6 z M 22.5 6 C 21.672 6 21 6.672 21 7.5 L 21 22.5 C 21 23.328 21.672 24 22.5 24 C 23.328 24 24 23.328 24 22.5 L 24 7.5 C 24 6.672 23.328 6 22.5 6 z" /></symbol><symbol id="performance"><path d="M 4 5 C 2.9 5 2 5.9 2 7 L 2 22 C 2 22.37 2.1092969 22.7 2.2792969 23 L 0 23 L 0 24 C 0 25.1 0.89 26 2 26 L 28 26 C 29.1 26 30 25.1 30 24 L 30 23 L 27.720703 23 C 27.890703 22.7 28 22.37 28 22 L 28 7 C 28 5.9 27.1 5 26 5 L 4 5 z M 4 7 L 26 7 L 26 22 L 18 22 C 18 22.55 17.55 23 17 23 L 14 23 C 13.45 23 13 22.55 13 22 L 4 22 L 4 7 z M 22.001953 11 C 21.746203 11 21.490422 11.097469 21.294922 11.292969 L 17.083984 15.503906 L 13.78125 11.375 C 13.40025 10.9 12.59975 10.9 12.21875 11.375 L 8.21875 16.375 C 7.87375 16.807 7.945 17.43625 8.375 17.78125 C 8.56 17.92925 8.7790469 18 8.9980469 18 C 9.2920469 18 9.58325 17.871 9.78125 17.625 L 13 13.601562 L 16.21875 17.625 C 16.39675 17.847 16.661313 17.982047 16.945312 17.998047 C 17.231313 18.016047 17.507031 17.909031 17.707031 17.707031 L 22.707031 12.707031 C 23.098031 12.316031 23.098031 11.683969 22.707031 11.292969 C 22.511531 11.097469 22.257703 11 22.001953 11 z" /></symbol><symbol id="play"><path d="M 6 3 A 1 1 0 0 0 5 4 A 1 1 0 0 0 5 4.0039062 L 5 15 L 5 25.996094 A 1 1 0 0 0 5 26 A 1 1 0 0 0 6 27 A 1 1 0 0 0 6.5800781 26.8125 L 6.5820312 26.814453 L 26.416016 15.908203 A 1 1 0 0 0 27 15 A 1 1 0 0 0 26.388672 14.078125 L 6.5820312 3.1855469 L 6.5800781 3.1855469 A 1 1 0 0 0 6 3 z" /></symbol><symbol id="processor"><path d="M 9 1 A 1 1 0 0 0 8 2 A 1 1 0 0 0 9 3 A 1 1 0 0 0 10 2 A 1 1 0 0 0 9 1 z M 13 1 A 1 1 0 0 0 12 2 A 1 1 0 0 0 13 3 A 1 1 0 0 0 14 2 A 1 1 0 0 0 13 1 z M 17 1 A 1 1 0 0 0 16 2 A 1 1 0 0 0 17 3 A 1 1 0 0 0 18 2 A 1 1 0 0 0 17 1 z M 21 1 A 1 1 0 0 0 20 2 A 1 1 0 0 0 21 3 A 1 1 0 0 0 22 2 A 1 1 0 0 0 21 1 z M 7 5 C 5.895 5 5 5.895 5 7 L 5 23 C 5 24.105 5.895 25 7 25 L 23 25 C 24.105 25 25 24.105 25 23 L 25 7 C 25 5.895 24.105 5 23 5 L 7 5 z M 2 8 A 1 1 0 0 0 1 9 A 1 1 0 0 0 2 10 A 1 1 0 0 0 3 9 A 1 1 0 0 0 2 8 z M 9.5 8 C 10.328 8 11 8.672 11 9.5 C 11 10.328 10.328 11 9.5 11 C 8.672 11 8 10.328 8 9.5 C 8 8.672 8.672 8 9.5 8 z M 28 8 A 1 1 0 0 0 27 9 A 1 1 0 0 0 28 10 A 1 1 0 0 0 29 9 A 1 1 0 0 0 28 8 z M 2 12 A 1 1 0 0 0 1 13 A 1 1 0 0 0 2 14 A 1 1 0 0 0 3 13 A 1 1 0 0 0 2 12 z M 28 12 A 1 1 0 0 0 27 13 A 1 1 0 0 0 28 14 A 1 1 0 0 0 29 13 A 1 1 0 0 0 28 12 z M 2 16 A 1 1 0 0 0 1 17 A 1 1 0 0 0 2 18 A 1 1 0 0 0 3 17 A 1 1 0 0 0 2 16 z M 28 16 A 1 1 0 0 0 27 17 A 1 1 0 0 0 28 18 A 1 1 0 0 0 29 17 A 1 1 0 0 0 28 16 z M 20.5 19 C 21.328 19 22 19.672 22 20.5 C 22 21.328 21.328 22 20.5 22 C 19.672 22 19 21.328 19 20.5 C 19 19.672 19.672 19 20.5 19 z M 2 20 A 1 1 0 0 0 1 21 A 1 1 0 0 0 2 22 A 1 1 0 0 0 3 21 A 1 1 0 0 0 2 20 z M 28 20 A 1 1 0 0 0 27 21 A 1 1 0 0 0 28 22 A 1 1 0 0 0 29 21 A 1 1 0 0 0 28 20 z M 9 27 A 1 1 0 0 0 8 28 A 1 1 0 0 0 9 29 A 1 1 0 0 0 10 28 A 1 1 0 0 0 9 27 z M 13 27 A 1 1 0 0 0 12 28 A 1 1 0 0 0 13 29 A 1 1 0 0 0 14 28 A 1 1 0 0 0 13 27 z M 17 27 A 1 1 0 0 0 16 28 A 1 1 0 0 0 17 29 A 1 1 0 0 0 18 28 A 1 1 0 0 0 17 27 z M 21 27 A 1 1 0 0 0 20 28 A 1 1 0 0 0 21 29 A 1 1 0 0 0 22 28 A 1 1 0 0 0 21 27 z" /></symbol><symbol id="program"><path d="M 4 3 C 2.895 3 2 3.895 2 5 L 2 8 L 2 23 C 2 24.105 2.895 25 4 25 L 26 25 C 27.105 25 28 24.105 28 23 L 28 7 C 28 5.895 27.105 5 26 5 L 11.199219 5 L 10.582031 3.9707031 C 10.221031 3.3687031 9.5701875 3 8.8671875 3 L 4 3 z M 10 10 C 10.25575 10 10.511531 10.097469 10.707031 10.292969 L 14.707031 14.292969 C 15.098031 14.683969 15.098031 15.316031 14.707031 15.707031 L 10.707031 19.707031 C 10.512031 19.902031 10.256 20 10 20 C 9.744 20 9.4879688 19.902031 9.2929688 19.707031 C 8.9019687 19.316031 8.9019687 18.683969 9.2929688 18.292969 L 12.585938 15 L 9.2929688 11.707031 C 8.9019687 11.316031 8.9019687 10.683969 9.2929688 10.292969 C 9.4884687 10.097469 9.74425 10 10 10 z M 16 18 L 20 18 C 20.553 18 21 18.447 21 19 C 21 19.553 20.553 20 20 20 L 16 20 C 15.447 20 15 19.553 15 19 C 15 18.447 15.447 18 16 18 z" /></symbol><symbol id="remove"><path d="M 13 3 A 1.0001 1.0001 0 0 0 11.986328 4 L 6 4 A 1.0001 1.0001 0 1 0 6 6 L 24 6 A 1.0001 1.0001 0 1 0 24 4 L 18.013672 4 A 1.0001 1.0001 0 0 0 17 3 L 13 3 z M 6 8 L 6 24 C 6 25.105 6.895 26 8 26 L 22 26 C 23.105 26 24 25.105 24 24 L 24 8 L 6 8 z M 12 13 C 12.25575 13 12.511531 13.097469 12.707031 13.292969 L 15 15.585938 L 17.292969 13.292969 C 17.683969 12.901969 18.316031 12.901969 18.707031 13.292969 C 19.098031 13.683969 19.098031 14.316031 18.707031 14.707031 L 16.414062 17 L 18.707031 19.292969 C 19.098031 19.683969 19.098031 20.316031 18.707031 20.707031 C 18.512031 20.902031 18.256 21 18 21 C 17.744 21 17.487969 20.902031 17.292969 20.707031 L 15 18.414062 L 12.707031 20.707031 C 12.512031 20.902031 12.256 21 12 21 C 11.744 21 11.487969 20.902031 11.292969 20.707031 C 10.901969 20.316031 10.901969 19.683969 11.292969 19.292969 L 13.585938 17 L 11.292969 14.707031 C 10.901969 14.316031 10.901969 13.683969 11.292969 13.292969 C 11.488469 13.097469 11.74425 13 12 13 z" /></symbol><symbol id="rename"><path d="M 16 3 A 1.0001 1.0001 0 1 0 16 5 L 18 5 C 18.554545 5 19 5.4454545 19 6 L 19 24 C 19 24.554545 18.554545 25 18 25 L 16 25 A 1.0001 1.0001 0 1 0 16 27 L 18 27 C 18.76881 27 19.466695 26.695812 20 26.212891 C 20.533305 26.695812 21.23119 27 22 27 L 24 27 A 1.0001 1.0001 0 1 0 24 25 L 22 25 C 21.445455 25 21 24.554545 21 24 L 21 6 C 21 5.4454545 21.445455 5 22 5 L 24 5 A 1.0001 1.0001 0 1 0 24 3 L 22 3 C 21.23119 3 20.533305 3.3041882 20 3.7871094 C 19.466695 3.3041882 18.76881 3 18 3 L 16 3 z M 4 8 A 1.0001 1.0001 0 0 0 3 9 L 3 21 A 1.0001 1.0001 0 0 0 4 22 L 17 22 L 17 20 L 5 20 L 5 10 L 17 10 L 17 8 L 4 8 z M 23 8 L 23 10 L 25 10 L 25 20 L 23 20 L 23 22 L 26 22 A 1.0001 1.0001 0 0 0 27 21 L 27 9 A 1.0001 1.0001 0 0 0 26 8 L 23 8 z M 7 12 L 7 18 L 15 18 L 15 12 L 7 12 z" /></symbol><symbol id="reset"><path d="M 15 3 C 8.3845336 3 3 8.3845336 3 15 C 3 21.615466 8.3845336 27 15 27 C 21.615466 27 27 21.615466 27 15 A 1.0001 1.0001 0 1 0 25 15 C 25 20.534534 20.534534 25 15 25 C 9.4654664 25 5 20.534534 5 15 C 5 9.4654664 9.4654664 5 15 5 C 17.511974 5 19.790481 5.9310235 21.544922 7.4550781 L 19 10 L 25 10 L 25 4 L 22.960938 6.0390625 C 20.840494 4.1553732 18.053851 3 15 3 z" /></symbol><symbol id="screen-editor"><path d="M 4 5 C 2.895 5 2 5.895 2 7 L 2 23 C 2 24.105 2.895 25 4 25 L 17.171875 25 L 20.171875 22 L 5 22 L 5 15 L 7.2890625 12.710938 C 8.2340625 11.765937 9.7659375 11.765937 10.710938 12.710938 L 13.972656 15.972656 L 16.15625 18.15625 C 16.57825 18.57825 17.259641 18.574344 17.681641 18.152344 C 18.104641 17.730344 18.104641 17.044094 17.681641 16.621094 L 16.529297 15.470703 L 17.289062 14.710938 C 18.234063 13.765937 19.765937 13.765937 20.710938 14.710938 L 24.085938 18.085938 L 28 14.171875 L 28 7 C 28 5.895 27.105 5 26 5 L 4 5 z M 23 8 C 24.105 8 25 8.895 25 10 C 25 11.105 24.105 12 23 12 C 21.895 12 21 11.105 21 10 C 21 8.895 21.895 8 23 8 z M 27.496094 18 C 27.189094 18 26.882937 18.117062 26.648438 18.351562 L 25.800781 19.199219 L 28.800781 22.199219 L 29.648438 21.351562 C 30.117438 20.882562 30.117438 20.123297 29.648438 19.654297 L 28.345703 18.351562 C 28.111203 18.117062 27.803094 18 27.496094 18 z M 24.599609 20.400391 L 19.800781 25.199219 L 20.699219 25.5 L 21 27 L 22.5 27.300781 L 22.800781 28.199219 L 27.599609 23.400391 L 24.599609 20.400391 z M 18.691406 27.691406 L 18.025391 29.580078 A 0.30000001 0.30000001 0 0 0 18.023438 29.583984 L 18.023438 29.585938 A 0.30000001 0.30000001 0 0 0 18 29.699219 A 0.30000001 0.30000001 0 0 0 18.300781 30 A 0.30000001 0.30000001 0 0 0 18.40625 29.980469 L 18.408203 29.980469 L 20.308594 29.308594 L 18.691406 27.691406 z" /></symbol><symbol id="screen"><path d="M 5 4 C 3.895 4 3 4.895 3 6 L 3 20 C 3 21.105 3.895 22 5 22 L 25 22 C 26.105 22 27 21.105 27 20 L 27 6 C 27 4.895 26.105 4 25 4 L 5 4 z M 5 6 L 25 6 L 25 18 L 5 18 L 5 6 z M 15 19 C 15.552 19 16 19.448 16 20 C 16 20.552 15.552 21 15 21 C 14.448 21 14 20.552 14 20 C 14 19.448 14.448 19 15 19 z M 10 24 A 1.0001 1.0001 0 1 0 10 26 L 20 26 A 1.0001 1.0001 0 1 0 20 24 L 10 24 z" /></symbol><symbol id="settings"><path d="M 15 2 C 14.448 2 14 2.448 14 3 L 14 3.171875 C 14 3.649875 13.663406 4.0763437 13.191406 4.1523438 C 12.962406 4.1893437 12.735719 4.2322031 12.511719 4.2832031 C 12.047719 4.3892031 11.578484 4.1265 11.396484 3.6875 L 11.330078 3.53125 C 11.119078 3.02125 10.534437 2.7782344 10.023438 2.9902344 C 9.5134375 3.2012344 9.2704219 3.785875 9.4824219 4.296875 L 9.5488281 4.4570312 C 9.7328281 4.8970313 9.5856875 5.4179219 9.1796875 5.6699219 C 8.9836875 5.7919219 8.7924688 5.9197344 8.6054688 6.0527344 C 8.2174688 6.3297344 7.68075 6.2666875 7.34375 5.9296875 L 7.2226562 5.8085938 C 6.8316562 5.4175937 6.1985937 5.4175938 5.8085938 5.8085938 C 5.4185938 6.1995938 5.4185938 6.8326563 5.8085938 7.2226562 L 5.9296875 7.34375 C 6.2666875 7.68075 6.3297344 8.2164688 6.0527344 8.6054688 C 5.9197344 8.7924687 5.7919219 8.9836875 5.6699219 9.1796875 C 5.4179219 9.5856875 4.8960781 9.7337812 4.4550781 9.5507812 L 4.296875 9.484375 C 3.786875 9.273375 3.2002813 9.5153906 2.9882812 10.025391 C 2.7772813 10.535391 3.0192969 11.120031 3.5292969 11.332031 L 3.6855469 11.396484 C 4.1245469 11.578484 4.3892031 12.047719 4.2832031 12.511719 C 4.2322031 12.735719 4.1873906 12.962406 4.1503906 13.191406 C 4.0753906 13.662406 3.649875 14 3.171875 14 L 3 14 C 2.448 14 2 14.448 2 15 C 2 15.552 2.448 16 3 16 L 3.171875 16 C 3.649875 16 4.0763437 16.336594 4.1523438 16.808594 C 4.1893437 17.037594 4.2322031 17.264281 4.2832031 17.488281 C 4.3892031 17.952281 4.1265 18.421516 3.6875 18.603516 L 3.53125 18.669922 C 3.02125 18.880922 2.7782344 19.465563 2.9902344 19.976562 C 3.2012344 20.486563 3.785875 20.729578 4.296875 20.517578 L 4.4570312 20.451172 C 4.8980312 20.268172 5.418875 20.415312 5.671875 20.820312 C 5.793875 21.016313 5.9206875 21.208484 6.0546875 21.396484 C 6.3316875 21.784484 6.2686406 22.321203 5.9316406 22.658203 L 5.8085938 22.779297 C 5.4175937 23.170297 5.4175938 23.803359 5.8085938 24.193359 C 6.1995938 24.583359 6.8326562 24.584359 7.2226562 24.193359 L 7.3457031 24.072266 C 7.6827031 23.735266 8.2174688 23.670266 8.6054688 23.947266 C 8.7934688 24.081266 8.9856406 24.210031 9.1816406 24.332031 C 9.5866406 24.584031 9.7357344 25.105875 9.5527344 25.546875 L 9.4863281 25.705078 C 9.2753281 26.215078 9.5173438 26.801672 10.027344 27.013672 C 10.537344 27.224672 11.121984 26.982656 11.333984 26.472656 L 11.398438 26.316406 C 11.580438 25.877406 12.049672 25.61275 12.513672 25.71875 C 12.737672 25.76975 12.964359 25.814562 13.193359 25.851562 C 13.662359 25.924562 14 26.350125 14 26.828125 L 14 27 C 14 27.552 14.448 28 15 28 C 15.552 28 16 27.552 16 27 L 16 26.828125 C 16 26.350125 16.336594 25.923656 16.808594 25.847656 C 17.037594 25.810656 17.264281 25.767797 17.488281 25.716797 C 17.952281 25.610797 18.421516 25.8735 18.603516 26.3125 L 18.669922 26.46875 C 18.880922 26.97875 19.465563 27.221766 19.976562 27.009766 C 20.486563 26.798766 20.729578 26.214125 20.517578 25.703125 L 20.451172 25.542969 C 20.268172 25.101969 20.415312 24.581125 20.820312 24.328125 C 21.016313 24.206125 21.208484 24.079312 21.396484 23.945312 C 21.784484 23.668312 22.321203 23.731359 22.658203 24.068359 L 22.779297 24.191406 C 23.170297 24.582406 23.803359 24.582406 24.193359 24.191406 C 24.583359 23.800406 24.584359 23.167344 24.193359 22.777344 L 24.072266 22.654297 C 23.735266 22.317297 23.670266 21.782531 23.947266 21.394531 C 24.081266 21.206531 24.210031 21.014359 24.332031 20.818359 C 24.584031 20.413359 25.105875 20.264266 25.546875 20.447266 L 25.705078 20.513672 C 26.215078 20.724672 26.801672 20.482656 27.013672 19.972656 C 27.224672 19.462656 26.982656 18.878016 26.472656 18.666016 L 26.316406 18.601562 C 25.877406 18.419563 25.61275 17.950328 25.71875 17.486328 C 25.76975 17.262328 25.814562 17.035641 25.851562 16.806641 C 25.924562 16.337641 26.350125 16 26.828125 16 L 27 16 C 27.552 16 28 15.552 28 15 C 28 14.448 27.552 14 27 14 L 26.828125 14 C 26.350125 14 25.923656 13.663406 25.847656 13.191406 C 25.810656 12.962406 25.767797 12.735719 25.716797 12.511719 C 25.610797 12.047719 25.8735 11.578484 26.3125 11.396484 L 26.46875 11.330078 C 26.97875 11.119078 27.221766 10.534437 27.009766 10.023438 C 26.798766 9.5134375 26.214125 9.2704219 25.703125 9.4824219 L 25.542969 9.5488281 C 25.101969 9.7318281 24.581125 9.5846875 24.328125 9.1796875 C 24.206125 8.9836875 24.079312 8.7915156 23.945312 8.6035156 C 23.668312 8.2155156 23.731359 7.6787969 24.068359 7.3417969 L 24.191406 7.2207031 C 24.582406 6.8297031 24.582406 6.1966406 24.191406 5.8066406 C 23.800406 5.4156406 23.167344 5.4156406 22.777344 5.8066406 L 22.65625 5.9296875 C 22.31925 6.2666875 21.782531 6.3316875 21.394531 6.0546875 C 21.206531 5.9206875 21.014359 5.7919219 20.818359 5.6699219 C 20.413359 5.4179219 20.266219 4.8960781 20.449219 4.4550781 L 20.515625 4.296875 C 20.726625 3.786875 20.484609 3.2002812 19.974609 2.9882812 C 19.464609 2.7772813 18.879969 3.0192969 18.667969 3.5292969 L 18.601562 3.6855469 C 18.419563 4.1245469 17.950328 4.3892031 17.486328 4.2832031 C 17.262328 4.2322031 17.035641 4.1873906 16.806641 4.1503906 C 16.336641 4.0753906 16 3.649875 16 3.171875 L 16 3 C 16 2.448 15.552 2 15 2 z M 15 7 C 19.078645 7 22.438586 10.054876 22.931641 14 L 16.728516 14 A 2 2 0 0 0 15 13 A 2 2 0 0 0 14.998047 13 L 11.896484 7.625 C 12.850999 7.222729 13.899211 7 15 7 z M 10.169922 8.6328125 L 13.269531 14 A 2 2 0 0 0 13 15 A 2 2 0 0 0 13.269531 15.996094 L 10.167969 21.365234 C 8.2464258 19.903996 7 17.600071 7 15 C 7 12.398945 8.2471371 10.093961 10.169922 8.6328125 z M 16.730469 16 L 22.931641 16 C 22.438586 19.945124 19.078645 23 15 23 C 13.899211 23 12.850999 22.777271 11.896484 22.375 L 14.998047 17 A 2 2 0 0 0 15 17 A 2 2 0 0 0 16.730469 16 z" /></symbol><symbol id="state"><path d="M 4 4 C 2.895 4 2 4.895 2 6 L 2 9 L 2 10 L 2 26 L 16 26 L 16 24 L 4 24 L 4 10 L 26 10 L 26 17.722656 L 28 18.921875 L 28 9 L 28 6 C 28 4.895 27.105 4 26 4 L 4 4 z M 8 13 A 1 1 0 0 0 7 14 A 1 1 0 0 0 8 15 A 1 1 0 0 0 9 14 A 1 1 0 0 0 8 13 z M 12 13 C 11.448 13 11 13.448 11 14 C 11 14.552 11.448 15 12 15 L 16.779297 15 C 17.328297 14.391 18.117 14 19 14 C 19.572 14 20.137625 14.176766 20.640625 14.509766 L 21.34375 14.931641 C 21.72575 14.790641 22 14.431 22 14 C 22 13.448 21.552 13 21 13 L 12 13 z M 19 16 C 18.448 16 18 16.448 18 17 C 18 17.001 18.001953 17.002906 18.001953 17.003906 L 18 17.003906 L 18 23 L 18 28.994141 L 18.001953 28.994141 C 18.001953 28.996141 18 28.999 18 29 C 18 29.552 18.448 30 19 30 C 19.214 30 19.4005 29.918688 19.5625 29.804688 L 29.476562 23.861328 C 29.783563 23.690328 30 23.376 30 23 C 30 22.624 29.784516 22.309672 29.478516 22.138672 L 19.564453 16.195312 C 19.401453 16.081312 19.214 16 19 16 z M 8 17 A 1 1 0 0 0 7 18 A 1 1 0 0 0 8 19 A 1 1 0 0 0 9 18 A 1 1 0 0 0 8 17 z M 12 17 C 11.448 17 11 17.448 11 18 C 11 18.552 11.448 19 12 19 L 16.001953 19 L 16.001953 17.056641 C 16.000953 17.037641 16 17.019 16 17 L 12 17 z" /></symbol><symbol id="stop"><path d="M22,6H8C6.895,6,6,6.895,6,8v14c0,1.105,0.895,2,2,2h14c1.105,0,2-0.895,2-2V8C24,6.895,23.105,6,22,6z" /></symbol><symbol id="toggle-full-screen"><path d="M 4 5 C 2.9069372 5 2 5.9069372 2 7 L 2 23 C 2 24.093063 2.9069372 25 4 25 L 26 25 C 27.093063 25 28 24.093063 28 23 L 28 7 C 28 5.9069372 27.093063 5 26 5 L 4 5 z M 4 7 L 26 7 L 26 23 L 17 23 L 17 17.414062 L 22.207031 12.207031 L 24 14 L 24 9 L 19 9 L 20.792969 10.792969 L 15.585938 16 L 4 16 L 4 7 z" /></symbol><symbol id="unminimize"><path d="M 14.970703 2.9726562 A 2.0002 2.0002 0 0 0 13 5 L 13 13 L 5 13 A 2.0002 2.0002 0 1 0 5 17 L 13 17 L 13 25 A 2.0002 2.0002 0 1 0 17 25 L 17 17 L 25 17 A 2.0002 2.0002 0 1 0 25 13 L 17 13 L 17 5 A 2.0002 2.0002 0 0 0 14.970703 2.9726562 z" /></symbol><symbol id="upload"><path d="M 6 3 C 4.895 3 4 3.895 4 5 L 4 22 C 4 23.105 4.895 24 6 24 L 14 24 L 14 11.414062 L 11.707031 13.707031 C 11.316031 14.098031 10.683969 14.098031 10.292969 13.707031 C 9.9019687 13.316031 9.9019687 12.683969 10.292969 12.292969 L 14.292969 8.2929688 C 14.487969 8.0979687 14.744 8 15 8 C 15.256 8 15.512031 8.0979688 15.707031 8.2929688 L 19.707031 12.292969 C 20.098031 12.683969 20.098031 13.316031 19.707031 13.707031 C 19.316031 14.098031 18.683969 14.098031 18.292969 13.707031 L 16 11.414062 L 16 24 L 24 24 C 25.105 24 26 23.105 26 22 L 26 5 C 26 3.895 25.105 3 24 3 L 6 3 z M 16 24 L 14 24 L 14 28 C 14 28.552 14.448 29 15 29 C 15.552 29 16 28.552 16 28 L 16 24 z" /></symbol></defs></svg>