<?xml version="1.0" encoding="utf-8"?><svg xmlns="http://www.w3.org/2000/svg" viewBox="0 0 16 16"><defs><symbol id="build"><path d="M3.59961 1.5H1.59961V4.7H3.59961L4.39961 4.3H5.59961L6.59961 5.1H8.79961L10.3996 3.9C11.5996 3.9 12.3996 3.9 14.3996 5.3C13.1996 1.5 10.7996 1.5 9.59961 1.5H6.59961L5.59961 1.9H4.39961L3.59961 1.5Z" stroke="currentColor" stroke-linejoin="round" /><path d="M6 14.5H9.4V9.42628C9.4 8.74915 9.26246 8.07908 8.99573 7.4567L8.8 6.99999V5H6.6V6.99999L6.40427 7.4567C6.13754 8.07908 6 8.74915 6 9.42628V14.5Z" stroke="currentColor" stroke-linejoin="round" /></symbol><symbol id="clearCash"><path d="M8.93527 10.1424L7.63107 14.4897C4.33497 14.3053 1.69472 11.665 1.51029 8.36893L5.85762 7.06473L8.93527 10.1424Z" stroke="currentColor" /><path d="M14.5 1.5L10 6" stroke="currentColor" stroke-linecap="round" /><path d="M6.85742 6.35742L6.96289 6.25195C7.73307 5.48178 8.98178 5.48178 9.75195 6.25195V6.25195C10.5221 7.02213 10.5221 8.27084 9.75195 9.04102L9.64648 9.14648" stroke="currentColor" /></symbol><symbol id="close"><path d="M2.5 13.5L13.5 2.5M13.5 13.5L2.5 2.5" stroke="currentColor" stroke-linecap="round" /></symbol><symbol id="delete"><path fill-rule="evenodd" clip-rule="evenodd" d="M7 2H9C9.55228 2 10 2.44772 10 3H6C6 2.44772 6.44772 2 7 2ZM5 3C5 1.89543 5.89543 1 7 1H9C10.1046 1 11 1.89543 11 3H13C13.5523 3 14 3.44772 14 4V5V6H13V13C13 14.1046 12.1046 15 11 15H5C3.89543 15 3 14.1046 3 13V6H2V5V4C2 3.44772 2.44772 3 3 3H5ZM11 4H10H6H5H3V5H4H12H13V4H11ZM4 6H12V13C12 13.5523 11.5523 14 11 14H5C4.44772 14 4 13.5523 4 13V6ZM6.5 7C6.22386 7 6 7.22386 6 7.5V11.5C6 11.7761 6.22386 12 6.5 12C6.77614 12 7 11.7761 7 11.5V7.5C7 7.22386 6.77614 7 6.5 7ZM9 7.5C9 7.22386 9.22386 7 9.5 7C9.77614 7 10 7.22386 10 7.5V11.5C10 11.7761 9.77614 12 9.5 12C9.22386 12 9 11.7761 9 11.5V7.5Z" fill="currentColor" /></symbol><symbol id="documentation"><rect x="2.5" y="3.5" width="9" height="10" rx="1.5" stroke="currentColor" /><rect x="5" y="6" width="4" height="1" rx="0.5" fill="currentColor" /><rect x="5" y="8" width="4" height="1" rx="0.5" fill="currentColor" /><rect x="5" y="10" width="4" height="1" rx="0.5" fill="currentColor" /><path fill-rule="evenodd" clip-rule="evenodd" d="M11.0019 2H11.6C12.3732 2 13 2.6268 13 3.4V3.91081C13.0013 3.94038 13.0019 3.97011 13.0019 4V11.5482C13.6065 11.1124 14 10.4021 14 9.6V3.4C14 2.07452 12.9255 1 11.6 1H6.39999C5.59698 1 4.88608 1.39437 4.45041 2H6.39999H11.0019Z" fill="currentColor" /></symbol><symbol id="download"><path fill-rule="evenodd" clip-rule="evenodd" d="M10.8535 8.3537C11.0488 8.15844 11.0488 7.84186 10.8536 7.64659C10.6583 7.45133 10.3417 7.45132 10.1465 7.64658L8.49972 9.29323L8.49972 2.5C8.49972 2.22386 8.27586 2 7.99972 2C7.72358 2 7.49972 2.22386 7.49972 2.5L7.49972 9.29271L5.85343 7.64645C5.65816 7.45119 5.34158 7.45119 5.14632 7.64645C4.95106 7.84172 4.95106 8.1583 5.14633 8.35356L7.64642 10.8536C7.84167 11.0489 8.15825 11.0489 8.35351 10.8536L10.8535 8.3537Z" fill="currentColor" /><rect width="12" height="1" rx="0.5" transform="matrix(1 0 0 -1 2 14)" fill="currentColor" /><rect x="2" y="10" width="1" height="4" rx="0.5" fill="currentColor" /><rect x="13" y="10" width="1" height="4" rx="0.5" fill="currentColor" /></symbol><symbol id="editMemory"><path d="m6 2c-1.1046 0-2 0.89543-2 2h-2.5c-0.27614 0-0.5 0.22386-0.5 0.5s0.22386 0.5 0.5 0.5h2.5v2.5h-2.5c-0.27614 0-0.5 0.22386-0.5 0.5s0.22386 0.5 0.5 0.5h2.5v2.5h-2.5c-0.27614 0-0.5 0.2239-0.5 0.5s0.22386 0.5 0.5 0.5h2.5c0 1.1046 0.89543 2 2 2h1.002v-1h-1.002c-0.55228 0-1-0.4477-1-1v-8c0-0.55228 0.44772-1 1-1h4c0.55228 0 1 0.44772 1 1v4.8789l1.291-1.293c0.030217-0.03022 0.062011-0.058097 0.09375-0.085938h-0.38477v-2.5h2.5c0.27614 0 0.5-0.22386 0.5-0.5s-0.22386-0.5-0.5-0.5h-2.5c0-1.1046-0.89543-2-2-2h-4z" clip-path="url(#clipPath13)" fill="currentColor" /><path d="m14.413 8.2939c-0.3905-0.39053-1.0237-0.39053-1.4142 0l-4.998 4.9979v2.7071h2.7071l4.998-4.9979c0.3905-0.3905 0.3905-1.0237 0-1.4142zm-0.4122 2.9979 0.998-0.9979-1.2929-1.2929-0.998 0.99792zm-2-0.5857 1.2929 1.2928-3 3h-1.2929v-1.2928z" clip-rule="evenodd" fill="var(--yellow)" fill-rule="evenodd" /><defs>
  <clipPath id="clipPath13">
   <rect width="16" height="16" fill="#fff" />
  </clipPath>
 </defs></symbol><symbol id="editScreen"><path d="m4 2c-1.0986 0-2 0.90136-2 2v6c0 1.0986 0.90134 2 2 2h3.8789l1-1h-4.8789c-0.5582 0-1-0.44183-1-1v-6c0-0.55821 0.44179-1 1-1h8c0.55817 0 1 0.4418 1 1v3.1348c0.22627-0.083795 0.4659-0.12695 0.70508-0.12695 0.098729 0 0.19711 0.011101 0.29492 0.025391v-3.0332c0-1.0987-0.90138-2-2-2h-8zm0.5 11c-0.27614 0-0.49999 0.2238-0.5 0.5-1e-5 0.2761 0.22385 0.5 0.5 0.5h2.5v-1h-2.5z" fill="currentColor" /><path d="m14.412 8.295c-0.3905-0.39053-1.0237-0.39053-1.4142 0l-4.998 4.9979v2.7071h2.7071l4.998-4.9979c0.3905-0.3905 0.3905-1.0237 0-1.4142zm-0.4122 2.9979 0.998-0.9979-1.2929-1.2929-0.998 0.99792zm-2-0.5857 1.2929 1.2928-3 3h-1.2929v-1.2928z" clip-rule="evenodd" fill="var(--yellow)" fill-rule="evenodd" /></symbol><symbol id="executeCurrentStatement"><path d="M13 3H3C2.44772 3 2 3.44772 2 4V12C2 12.5523 2.44772 13 3 13H8V14H3C1.89543 14 1 13.1046 1 12V4C1 2.89543 1.89543 2 3 2H13C14.1046 2 15 2.89543 15 4V9.36421L14 8.74006V4C14 3.44772 13.5523 3 13 3Z" fill="currentColor" /><path d="M4.83353 5.16655C4.63827 4.97129 4.32168 4.97129 4.12642 5.16655C3.93116 5.36181 3.93116 5.67839 4.12642 5.87365L5.75277 7.5L4.12642 9.12635C3.93116 9.32161 3.93116 9.63819 4.12642 9.83345C4.32168 10.0287 4.63827 10.0287 4.83353 9.83345L6.81343 7.85355C7.00869 7.65829 7.00869 7.34171 6.81343 7.14645L4.83353 5.16655Z" fill="currentColor" /><path fill-rule="evenodd" clip-rule="evenodd" d="M9 9.5024C9 8.32466 10.2951 7.60632 11.2942 8.22991L15.2962 10.7277C16.2372 11.3151 16.2372 12.6854 15.2962 13.2727L11.2942 15.7705C10.2951 16.3941 9 15.6758 9 14.4981V9.5024ZM10.7647 9.07823C10.4317 8.87037 10 9.10982 10 9.5024V14.4981C10 14.8906 10.4317 15.1301 10.7647 14.9222L14.7667 12.4244C15.0804 12.2286 15.0804 11.7719 14.7667 11.5761L10.7647 9.07823Z" fill="var(--green)" /><path d="M10 9.50226C10 9.10968 10.4317 8.87024 10.7647 9.0781L14.7667 11.5759C15.0804 11.7717 15.0804 12.2285 14.7667 12.4243L10.7647 14.9221C10.4317 15.13 10 14.8905 10 14.4979V9.50226Z" fill="var(--green-70)" /></symbol><symbol id="expand"><path d="M6.5 9.5L2 14M9.50003 6.50004L14 2.00001M5.5 14.5H1.5V10.5M10.5 1.5L14.5 1.50002V5.5" stroke="currentColor" stroke-linecap="round" stroke-linejoin="round" /></symbol><symbol id="export"><path fill-rule="evenodd" clip-rule="evenodd" d="M13.9621 2.30861C13.938 2.25051 13.9026 2.19602 13.8557 2.14857C13.8543 2.14715 13.8528 2.14574 13.8514 2.14433C13.7611 2.05509 13.637 2 13.5 2H13.4999H9.5C9.22386 2 9 2.22386 9 2.5C9 2.77614 9.22386 3 9.5 3H12.2929L7.14645 8.14645C6.95118 8.34171 6.95118 8.65829 7.14645 8.85355C7.34171 9.04882 7.65829 9.04882 7.85355 8.85355L13 3.70711V6.5C13 6.77614 13.2239 7 13.5 7C13.7761 7 14 6.77614 14 6.5V2.50035C14 2.49923 14 2.49812 14 2.497C13.9996 2.43287 13.987 2.3688 13.9621 2.30861Z" fill="currentColor" /><path d="M2.5 4.5V12C2.5 12.8284 3.17157 13.5 4 13.5H11.5" stroke="currentColor" stroke-linecap="round" /></symbol><symbol id="folder"><path d="M8.10584 4.34613L8.25344 4.5H8.46667H13C13.8284 4.5 14.5 5.17157 14.5 6V12.1333C14.5 12.9529 13.932 13.5 13.3667 13.5H2.63333C2.06804 13.5 1.5 12.9529 1.5 12.1333V3.86667C1.5 3.04707 2.06804 2.5 2.63333 2.5H6.1217C6.25792 2.5 6.38824 2.55557 6.48253 2.65387L8.10584 4.34613Z" fill="transparent" stroke="currentColor" /></symbol><symbol id="import"><path fill-rule="evenodd" clip-rule="evenodd" d="M7.03794 8.69139C7.06198 8.74949 7.09744 8.80398 7.14433 8.85143C7.14574 8.85285 7.14715 8.85426 7.14857 8.85567C7.23888 8.94491 7.36301 9 7.5 9H7.50009H11.5C11.7761 9 12 8.77614 12 8.5C12 8.22386 11.7761 8 11.5 8H8.70711L13.8536 2.85355C14.0488 2.65829 14.0488 2.34171 13.8536 2.14645C13.6583 1.95118 13.3417 1.95118 13.1464 2.14645L8 7.29289V4.5C8 4.22386 7.77614 4 7.5 4C7.22386 4 7 4.22386 7 4.5V8.49965C7 8.50077 7 8.50188 7.00001 8.503C7.00039 8.56713 7.01303 8.6312 7.03794 8.69139Z" fill="currentColor" /><path d="M2.5 4.5V12C2.5 12.8284 3.17157 13.5 4 13.5H11.5" stroke="currentColor" stroke-linecap="round" /></symbol><symbol id="maximize"><rect x="3.5" y="3.5" width="9" height="9" stroke="currentColor" /></symbol><symbol id="minimize"><rect x="3" y="8" width="10" height="1" fill="currentColor" /></symbol><symbol id="mnemonic"><path d="M0.5 12V2C0.5 1.17157 1.17157 0.5 2 0.5H12C12.8284 0.5 13.5 1.17157 13.5 2V12C13.5 12.8284 12.8284 13.5 12 13.5H2C1.17157 13.5 0.5 12.8284 0.5 12Z" fill="#FFFAEB" stroke="#FFAF0F" /></symbol><symbol id="playForward"><path d="M6 12.5L10.5 8L6 3.5" stroke="currentColor" stroke-linecap="round" /></symbol><symbol id="playLast"><path d="M11.5 12.5V3.5" stroke="currentColor" stroke-linecap="round" /><path d="M4 12.5L8.5 8L4 3.5" stroke="currentColor" stroke-linecap="round" /></symbol><symbol id="profileMemory"><g clip-path="url(#clip0_12362_11792)">
<path d="M4 4V12C4 13.1046 4.89543 14 6 14H8V10C8 8.89543 8.89543 8 10 8H12V4C12 2.89543 11.1046 2 10 2H6C4.89543 2 4 2.89543 4 4Z" fill="transparent" />
<path d="M11.5 11C11.2239 11 11 11.2239 11 11.5C11 11.7761 11.2239 12 11.5 12H13.5C13.7761 12 14 11.7761 14 11.5C14 11.2239 13.7761 11 13.5 11H11.5Z" fill="currentColor" />
<path fill-rule="evenodd" clip-rule="evenodd" d="M9 15V10C9 9.44772 9.44772 9 10 9H13.5858C13.851 9 14.1054 9.10536 14.2929 9.29289L15.7071 10.7071C15.8946 10.8946 16 11.149 16 11.4142V15C16 15.5523 15.5523 16 15 16H10C9.44772 16 9 15.5523 9 15ZM10 10V15H11V14C11 13.4477 11.4477 13 12 13H13C13.5523 13 14 13.4477 14 14V15H15V11.4142L13.5858 10L10 10ZM13 15H12V14H13V15Z" fill="currentColor" />
<path d="M6 2C4.89543 2 4 2.89543 4 4H1.5C1.22386 4 1 4.22386 1 4.5C1 4.77614 1.22386 5 1.5 5H3.99998L4 4V12L3.99998 11H1.5C1.22386 11 1 11.2239 1 11.5C1 11.7761 1.22386 12 1.5 12H4C4 13.1046 4.89543 14 6 14H8V13H6C5.44772 13 5 12.5523 5 12V4C5 3.44772 5.44772 3 6 3H10C10.5523 3 11 3.44772 11 4V8H12V5H14.5C14.7761 5 15 4.77614 15 4.5C15 4.22386 14.7761 4 14.5 4H12C12 2.89543 11.1046 2 10 2H6Z" fill="currentColor" />
<path d="M1.5 7.5C1.22386 7.5 1 7.72386 1 8C1 8.27614 1.22386 8.5 1.5 8.5H3.99998V7.5H1.5Z" fill="currentColor" />
</g><defs>
<clipPath id="clip0_12362_11792">
<rect width="16" height="16" fill="white" />
</clipPath>
</defs></symbol><symbol id="reset"><path fill-rule="evenodd" clip-rule="evenodd" d="M5.85363 2.35355C6.04889 2.15829 6.04889 1.84171 5.85363 1.64645C5.65837 1.45118 5.34178 1.45118 5.14652 1.64645L1.64652 5.14645L1.29297 5.5L1.64652 5.85355L5.14652 9.35355C5.34178 9.54882 5.65837 9.54882 5.85363 9.35355C6.04889 9.15829 6.04889 8.84171 5.85363 8.64645L3.20718 6H10.5001C12.4331 6 14.0001 7.567 14.0001 9.5C14.0001 11.433 12.4331 13 10.5001 13H5.50008C5.22393 13 5.00008 13.2239 5.00008 13.5C5.00008 13.7761 5.22393 14 5.50008 14H10.5001C12.9854 14 15.0001 11.9853 15.0001 9.5C15.0001 7.01472 12.9854 5 10.5001 5H3.20718L5.85363 2.35355Z" fill="currentColor" /></symbol><symbol id="restartStop"><rect x="9.5" y="9.5" width="6" height="6" rx="1.5" fill="var(--red-70)" stroke="var(--red)" /><path d="M14 1.5C14 1.22386 13.7761 1 13.5 1C13.2239 1 13 1.22386 13 1.5V4.68235C11.9256 3.06631 10.0877 2 8 2C4.68629 2 2 4.68629 2 8C2 11.3137 4.68629 14 8 14V13C5.23858 13 3 10.7614 3 8C3 5.23858 5.23858 3 8 3C9.63527 3 11.0878 3.78495 12.0005 5H9.5C9.22386 5 9 5.22386 9 5.5C9 5.77614 9.22386 6 9.5 6H14V1.5Z" fill="currentColor" /></symbol><symbol id="run"><path d="M12 6.13399C12.6667 6.51889 12.6667 7.48114 12 7.86604L3 13.0622C2.33333 13.4471 1.5 12.966 1.5 12.1962L1.5 1.80386C1.5 1.03406 2.33333 0.552935 3 0.937835L12 6.13399Z" fill="var(--green-70)" stroke="var(--green)" /></symbol><symbol id="screens"><path d="M4.00002 13.5C4.00003 13.2238 4.22388 13 4.50002 13L11.5 13C11.7761 13 12 13.2239 12 13.5C12 13.7761 11.7761 14 11.5 14L4.50002 14C4.22387 14 4.00001 13.7761 4.00002 13.5Z" fill="currentColor" /><path d="M12 2.5C12.8284 2.5 13.5 3.17157 13.5 4V10C13.5 10.8284 12.8284 11.5 12 11.5H4C3.17157 11.5 2.5 10.8284 2.5 10L2.5 4C2.5 3.17157 3.17157 2.5 4 2.5L12 2.5Z" fill="transparent" stroke="currentColor" /></symbol><symbol id="settings"><path fill-rule="evenodd" clip-rule="evenodd" d="M3.22655 4.36961C2.92233 4.76924 2.66735 5.20781 2.47037 5.67626L3.30992 7.0943C3.6406 7.65283 3.6406 8.34718 3.30992 8.9057L2.47037 10.3237C2.66736 10.7922 2.92233 11.2308 3.22656 11.6304L4.87261 11.6124C5.52165 11.6053 6.12297 11.9524 6.44133 12.5181L7.24899 13.953C7.49593 13.984 7.74792 14 8.00408 14C8.2602 14 8.51214 13.984 8.75904 13.9531L9.56671 12.5181C9.88507 11.9524 10.4864 11.6053 11.1354 11.6124L12.7816 11.6304C13.0858 11.2308 13.3408 10.7923 13.5377 10.3239L12.6981 8.9057C12.3674 8.34718 12.3674 7.65283 12.6981 7.0943L13.5377 5.67613C13.3408 5.20773 13.0858 4.76921 12.7816 4.36961L11.1354 4.38764C10.4864 4.39475 9.88507 4.04758 9.56671 3.48194L8.75904 2.04693C8.51214 2.01599 8.2602 2 8.00408 2C7.74792 2 7.49594 2.016 7.24899 2.04695L6.44133 3.48194C6.12297 4.04758 5.52165 4.39475 4.87261 4.38764L3.22655 4.36961ZM10.655 8.00001C10.655 9.46412 9.46811 10.651 8.004 10.651C6.5399 10.651 5.353 9.46412 5.353 8.00001C5.353 6.53591 6.5399 5.34902 8.004 5.34902C9.46811 5.34902 10.655 6.53591 10.655 8.00001ZM4.88356 3.3877C5.16752 3.39081 5.4306 3.23892 5.56988 2.99146L6.43817 1.44875C6.54914 1.25159 6.7401 1.1101 6.96387 1.07676C7.30327 1.0262 7.65062 1 8.00408 1C8.3575 1 8.7048 1.02619 9.04414 1.07674C9.26792 1.11007 9.45889 1.25157 9.56986 1.44873L10.4382 2.99146C10.5774 3.23892 10.8405 3.39081 11.1245 3.3877L12.8938 3.36832C13.1196 3.36585 13.3372 3.46012 13.4781 3.63661C13.9099 4.17766 14.2632 4.78416 14.5207 5.43884C14.6034 5.6491 14.5763 5.88489 14.4612 6.07931L13.5586 7.60376C13.4139 7.84811 13.4139 8.15189 13.5586 8.39625L14.4612 9.92069C14.5763 10.1151 14.6034 10.3509 14.5207 10.5612C14.2632 11.2158 13.9099 11.8223 13.4781 12.3634C13.3372 12.5399 13.1196 12.6342 12.8938 12.6317L11.1245 12.6123C10.8405 12.6092 10.5774 12.7611 10.4382 13.0085L9.56986 14.5513C9.45889 14.7484 9.26792 14.8899 9.04414 14.9233C8.7048 14.9738 8.3575 15 8.00408 15C7.65062 15 7.30327 14.9738 6.96387 14.9232C6.7401 14.8899 6.54914 14.7484 6.43817 14.5512L5.56988 13.0085C5.4306 12.7611 5.16752 12.6092 4.88356 12.6123L3.1144 12.6317C2.8886 12.6342 2.67096 12.5399 2.5301 12.3634C2.09822 11.8223 1.74489 11.2158 1.48738 10.561C1.40469 10.3508 1.43184 10.115 1.54695 9.92057L2.44942 8.39625C2.5941 8.15189 2.5941 7.84811 2.44942 7.60376L1.54695 6.07944C1.43184 5.88502 1.40469 5.64924 1.48738 5.43898C1.74489 4.78425 2.09822 4.1777 2.53009 3.63661C2.67096 3.46012 2.8886 3.36585 3.1144 3.36832L4.88356 3.3877ZM9.655 8.00001C9.655 8.91183 8.91582 9.65101 8.004 9.65101C7.09218 9.65101 6.353 8.91183 6.353 8.00001C6.353 7.08819 7.09218 6.34902 8.004 6.34902C8.91582 6.34902 9.655 7.08819 9.655 8.00001Z" fill="currentColor" /></symbol><symbol id="showLogs"><path d="M12 14C12.5523 14 13 13.5523 13 13C13 12.4477 12.5523 12 12 12C11.4477 12 11 12.4477 11 13C11 13.5523 11.4477 14 12 14Z" fill="var(--blue)" /><path fill-rule="evenodd" clip-rule="evenodd" d="M12 16C9 16 8 13 8 13C8 13 9 10 12 10C15 10 16 13 16 13C16 13 15 16 12 16ZM14.9024 12.9785L14.9131 13L14.9024 13.0215C14.787 13.2525 14.6081 13.5582 14.3568 13.8598C13.8602 14.4557 13.1189 15 12 15C10.8811 15 10.1398 14.4557 9.64322 13.8598C9.39186 13.5582 9.21302 13.2525 9.09755 13.0215L9.08686 13L9.09755 12.9785C9.21302 12.7475 9.39186 12.4418 9.64322 12.1402C10.1398 11.5443 10.8811 11 12 11C13.1189 11 13.8602 11.5443 14.3568 12.1402C14.6081 12.4418 14.787 12.7475 14.9024 12.9785Z" fill="var(--blue)" /><path d="M12 1C13.1046 1 14 1.89543 14 3V9.40904C13.6947 9.2748 13.3618 9.16675 13 9.09548V3C13 2.44772 12.5523 2 12 2H4C3.44772 2 3 2.44772 3 3V13C3 13.5523 3.44772 14 4 14H7.35149C7.49887 14.2842 7.7089 14.637 7.99347 15H4C2.89543 15 2 14.1046 2 13V3C2 2.15611 2.52265 1.4343 3.26192 1.1406C3.49028 1.04987 3.73932 1 4 1H12Z" fill="currentColor" /><path d="M9.00093 10C8.64732 10.2692 8.35059 10.5672 8.10677 10.8598C8.06775 10.9066 8.03 10.9534 7.99347 11H5.5C5.22386 11 5 10.7761 5 10.5C5 10.2239 5.22386 10 5.5 10H9.00093Z" fill="currentColor" /><path d="M10.5 6C10.7761 6 11 5.77614 11 5.5C11 5.22386 10.7761 5 10.5 5H5.5C5.22386 5 5 5.22386 5 5.5C5 5.77614 5.22386 6 5.5 6H10.5Z" fill="currentColor" /><path d="M11 8C11 7.72386 10.7761 7.5 10.5 7.5H5.5C5.22386 7.5 5 7.72386 5 8C5 8.27614 5.22386 8.5 5.5 8.5H10.5C10.7761 8.5 11 8.27614 11 8Z" fill="currentColor" /></symbol><symbol id="startMemoryProfile"><g clip-path="url(#clip0_11453_11473)">
<path fill-rule="evenodd" clip-rule="evenodd" d="M9 9.5024C9 8.32466 10.2951 7.60632 11.2942 8.22991L15.2962 10.7277C16.2372 11.3151 16.2372 12.6854 15.2962 13.2727L11.2942 15.7705C10.2951 16.3941 9 15.6758 9 14.4981V9.5024ZM10.7647 9.07823C10.4317 8.87037 10 9.10982 10 9.5024V14.4981C10 14.8906 10.4317 15.1301 10.7647 14.9222L14.7667 12.4244C15.0804 12.2286 15.0804 11.7719 14.7667 11.5761L10.7647 9.07823Z" fill="var(--green)" />
<path d="M10 9.50226C10 9.10968 10.4317 8.87024 10.7647 9.0781L14.7667 11.5759C15.0804 11.7717 15.0804 12.2285 14.7667 12.4243L10.7647 14.9221C10.4317 15.13 10 14.8905 10 14.4979V9.50226Z" fill="var(--green-70)" />
<path d="M4 12V4C4 2.89543 4.89543 2 6 2H10C11.1046 2 12 2.89543 12 4V7.49176L11.8237 7.38172C10.1585 6.3424 8 7.53963 8 9.50253V14H6C4.89543 14 4 13.1046 4 12Z" fill="transparent" />
<path d="M4 4C4 2.89543 4.89543 2 6 2H10C11.1046 2 12 2.89543 12 4H14.5C14.7761 4 15 4.22386 15 4.5C15 4.77614 14.7761 5 14.5 5H12V7.49176L11.8237 7.38172C11.5581 7.21595 11.2799 7.10707 11 7.04913V4C11 3.44772 10.5523 3 10 3H6C5.44772 3 5 3.44772 5 4V12C5 12.5523 5.44772 13 6 13H8V14H6C4.89543 14 4 13.1046 4 12V4Z" fill="currentColor" />
<path d="M4 4L3.99998 5H1.5C1.22386 5 1 4.77614 1 4.5C1 4.22386 1.22386 4 1.5 4L4 4Z" fill="currentColor" />
<path d="M4 12H1.5C1.22386 12 1 11.7761 1 11.5C1 11.2239 1.22386 11 1.5 11H3.99998L4 12Z" fill="currentColor" />
<path d="M13.6154 8.5H14.5C14.7761 8.5 15 8.27614 15 8C15 7.72386 14.7761 7.5 14.5 7.5H12.0132L13.6154 8.5Z" fill="currentColor" />
<path d="M1.5 7.5C1.22386 7.5 1 7.72386 1 8C1 8.27614 1.22386 8.5 1.5 8.5H3.99998V7.5H1.5Z" fill="currentColor" />
</g><defs>
<clipPath id="clip0_11453_11473">
<rect width="16" height="16" fill="white" />
</clipPath>
</defs></symbol><symbol id="stop"><rect x="2.5" y="2.5" width="11" height="11" rx="1.5" fill="var(--red-70)" stroke="var(--red)" /></symbol><symbol id="upload"><path fill-rule="evenodd" clip-rule="evenodd" d="M10.8535 4.6463C11.0488 4.84156 11.0488 5.15814 10.8536 5.35341C10.6583 5.54868 10.3417 5.54868 10.1465 5.35343L8.49972 3.70677L8.49972 10.5142C8.49972 10.7903 8.27586 11.0142 7.99972 11.0142C7.72358 11.0142 7.49972 10.7903 7.49972 10.5142L7.49972 3.70729L5.85343 5.35356C5.65816 5.54882 5.34158 5.54881 5.14632 5.35355C4.95106 5.15829 4.95106 4.8417 5.14633 4.64644L7.64642 2.1464C7.84167 1.95114 8.15825 1.95114 8.35351 2.14639L10.8535 4.6463Z" fill="currentColor" /><rect width="12" height="1" rx="0.5" transform="matrix(1 0 0 -1 2 14)" fill="currentColor" /><rect x="2" y="10" width="1" height="4" rx="0.5" fill="currentColor" /><rect x="13" y="10" width="1" height="4" rx="0.5" fill="currentColor" /></symbol></defs></svg>