<svg xmlns="http://www.w3.org/2000/svg" viewBox="0 0 30 30"><path d="M 15 3 C 8.3845336 3 3 8.3845336 3 15 A 1.0001 1.0001 0 1 0 5 15 C 5 9.4654664 9.4654664 5 15 5 C 20.534534 5 25 9.4654664 25 15 A 1.0001 1.0001 0 1 0 27 15 C 27 8.3845336 21.615466 3 15 3 z M 4.7285156 17.910156 L 3.9277344 18.3125 L 3.7695312 19.193359 L 4.3808594 19.847656 L 4.7285156 19.910156 L 5.5292969 19.507812 L 5.6875 18.626953 L 5.0761719 17.972656 L 4.7285156 17.910156 z M 24.089844 20.15625 L 23.289062 20.556641 L 23.130859 21.439453 L 23.742188 22.09375 L 24.089844 22.15625 L 24.890625 21.753906 L 25.048828 20.873047 L 24.4375 20.21875 L 24.089844 20.15625 z M 6.7929688 21.306641 L 5.9921875 21.708984 L 5.8339844 22.589844 L 6.4472656 23.244141 L 6.7929688 23.306641 L 7.59375 22.904297 L 7.7519531 22.023438 L 7.140625 21.369141 L 6.7929688 21.306641 z M 21.304688 22.988281 L 20.503906 23.390625 L 20.345703 24.271484 L 20.957031 24.925781 L 21.304688 24.988281 L 22.105469 24.585938 L 22.263672 23.705078 L 21.650391 23.050781 L 21.304688 22.988281 z M 9.9277344 23.753906 L 9.125 24.15625 L 8.96875 25.037109 L 9.5800781 25.691406 L 9.9277344 25.753906 L 10.728516 25.353516 L 10.886719 24.470703 L 10.273438 23.816406 L 9.9277344 23.753906 z M 17.697266 24.660156 L 16.896484 25.0625 L 16.738281 25.945312 L 17.349609 26.599609 L 17.697266 26.660156 L 18.498047 26.259766 L 18.65625 25.376953 L 18.044922 24.722656 L 17.697266 24.660156 z M 13.728516 24.919922 L 12.927734 25.322266 L 12.769531 26.205078 L 13.382812 26.859375 L 13.728516 26.919922 L 14.529297 26.519531 L 14.6875 25.636719 L 14.076172 24.982422 L 13.728516 24.919922 z"/></svg>