<svg xmlns="http://www.w3.org/2000/svg" viewBox="0 0 30 30"><path d="M 4 5 C 2.9 5 2 5.9 2 7 L 2 22 C 2 22.37 2.1092969 22.7 2.2792969 23 L 0 23 L 0 24 C 0 25.1 0.89 26 2 26 L 28 26 C 29.1 26 30 25.1 30 24 L 30 23 L 27.720703 23 C 27.890703 22.7 28 22.37 28 22 L 28 7 C 28 5.9 27.1 5 26 5 L 4 5 z M 4 7 L 26 7 L 26 22 L 18 22 C 18 22.55 17.55 23 17 23 L 14 23 C 13.45 23 13 22.55 13 22 L 4 22 L 4 7 z M 22.001953 11 C 21.746203 11 21.490422 11.097469 21.294922 11.292969 L 17.083984 15.503906 L 13.78125 11.375 C 13.40025 10.9 12.59975 10.9 12.21875 11.375 L 8.21875 16.375 C 7.87375 16.807 7.945 17.43625 8.375 17.78125 C 8.56 17.92925 8.7790469 18 8.9980469 18 C 9.2920469 18 9.58325 17.871 9.78125 17.625 L 13 13.601562 L 16.21875 17.625 C 16.39675 17.847 16.661313 17.982047 16.945312 17.998047 C 17.231313 18.016047 17.507031 17.909031 17.707031 17.707031 L 22.707031 12.707031 C 23.098031 12.316031 23.098031 11.683969 22.707031 11.292969 C 22.511531 11.097469 22.257703 11 22.001953 11 z"/></svg>