<?xml version="1.0"?><svg xmlns="http://www.w3.org/2000/svg" viewBox="0 0 30 30">    <path d="M 4 5 C 2.895 5 2 5.895 2 7 L 2 23 C 2 24.105 2.895 25 4 25 L 17.171875 25 L 20.171875 22 L 5 22 L 5 15 L 7.2890625 12.710938 C 8.2340625 11.765937 9.7659375 11.765937 10.710938 12.710938 L 13.972656 15.972656 L 16.15625 18.15625 C 16.57825 18.57825 17.259641 18.574344 17.681641 18.152344 C 18.104641 17.730344 18.104641 17.044094 17.681641 16.621094 L 16.529297 15.470703 L 17.289062 14.710938 C 18.234063 13.765937 19.765937 13.765937 20.710938 14.710938 L 24.085938 18.085938 L 28 14.171875 L 28 7 C 28 5.895 27.105 5 26 5 L 4 5 z M 23 8 C 24.105 8 25 8.895 25 10 C 25 11.105 24.105 12 23 12 C 21.895 12 21 11.105 21 10 C 21 8.895 21.895 8 23 8 z M 27.496094 18 C 27.189094 18 26.882937 18.117062 26.648438 18.351562 L 25.800781 19.199219 L 28.800781 22.199219 L 29.648438 21.351562 C 30.117438 20.882562 30.117438 20.123297 29.648438 19.654297 L 28.345703 18.351562 C 28.111203 18.117062 27.803094 18 27.496094 18 z M 24.599609 20.400391 L 19.800781 25.199219 L 20.699219 25.5 L 21 27 L 22.5 27.300781 L 22.800781 28.199219 L 27.599609 23.400391 L 24.599609 20.400391 z M 18.691406 27.691406 L 18.025391 29.580078 A 0.30000001 0.30000001 0 0 0 18.023438 29.583984 L 18.023438 29.585938 A 0.30000001 0.30000001 0 0 0 18 29.699219 A 0.30000001 0.30000001 0 0 0 18.300781 30 A 0.30000001 0.30000001 0 0 0 18.40625 29.980469 L 18.408203 29.980469 L 20.308594 29.308594 L 18.691406 27.691406 z"/></svg>
