<?xml version="1.0"?><svg xmlns="http://www.w3.org/2000/svg" viewBox="0 0 30 30">    <path d="M 4 4 C 2.895 4 2 4.895 2 6 L 2 9 L 2 10 L 2 26 L 16 26 L 16 24 L 4 24 L 4 10 L 26 10 L 26 17.722656 L 28 18.921875 L 28 9 L 28 6 C 28 4.895 27.105 4 26 4 L 4 4 z M 8 13 A 1 1 0 0 0 7 14 A 1 1 0 0 0 8 15 A 1 1 0 0 0 9 14 A 1 1 0 0 0 8 13 z M 12 13 C 11.448 13 11 13.448 11 14 C 11 14.552 11.448 15 12 15 L 16.779297 15 C 17.328297 14.391 18.117 14 19 14 C 19.572 14 20.137625 14.176766 20.640625 14.509766 L 21.34375 14.931641 C 21.72575 14.790641 22 14.431 22 14 C 22 13.448 21.552 13 21 13 L 12 13 z M 19 16 C 18.448 16 18 16.448 18 17 C 18 17.001 18.001953 17.002906 18.001953 17.003906 L 18 17.003906 L 18 23 L 18 28.994141 L 18.001953 28.994141 C 18.001953 28.996141 18 28.999 18 29 C 18 29.552 18.448 30 19 30 C 19.214 30 19.4005 29.918688 19.5625 29.804688 L 29.476562 23.861328 C 29.783563 23.690328 30 23.376 30 23 C 30 22.624 29.784516 22.309672 29.478516 22.138672 L 19.564453 16.195312 C 19.401453 16.081312 19.214 16 19 16 z M 8 17 A 1 1 0 0 0 7 18 A 1 1 0 0 0 8 19 A 1 1 0 0 0 9 18 A 1 1 0 0 0 8 17 z M 12 17 C 11.448 17 11 17.448 11 18 C 11 18.552 11.448 19 12 19 L 16.001953 19 L 16.001953 17.056641 C 16.000953 17.037641 16 17.019 16 17 L 12 17 z"/></svg>
