<!-- Copyright 2000-2023 JetBrains s.r.o. and contributors. Use of this source code is governed by the Apache 2.0 license. -->
<svg width="16" height="16" fill="none" version="1.1" viewBox="0 0 16 16" xmlns="http://www.w3.org/2000/svg">
 <path d="m6 2c-1.1046 0-2 0.89543-2 2h-2.5c-0.27614 0-0.5 0.22386-0.5 0.5s0.22386 0.5 0.5 0.5h2.5v2.5h-2.5c-0.27614 0-0.5 0.22386-0.5 0.5s0.22386 0.5 0.5 0.5h2.5v2.5h-2.5c-0.27614 0-0.5 0.2239-0.5 0.5s0.22386 0.5 0.5 0.5h2.5c0 1.1046 0.89543 2 2 2h1.002v-1h-1.002c-0.55228 0-1-0.4477-1-1v-8c0-0.55228 0.44772-1 1-1h4c0.55228 0 1 0.44772 1 1v4.8789l1.291-1.293c0.030217-0.03022 0.062011-0.058097 0.09375-0.085938h-0.38477v-2.5h2.5c0.27614 0 0.5-0.22386 0.5-0.5s-0.22386-0.5-0.5-0.5h-2.5c0-1.1046-0.89543-2-2-2h-4z" clip-path="url(#clipPath13)" fill="currentColor"/>
 <path d="m14.413 8.2939c-0.3905-0.39053-1.0237-0.39053-1.4142 0l-4.998 4.9979v2.7071h2.7071l4.998-4.9979c0.3905-0.3905 0.3905-1.0237 0-1.4142zm-0.4122 2.9979 0.998-0.9979-1.2929-1.2929-0.998 0.99792zm-2-0.5857 1.2929 1.2928-3 3h-1.2929v-1.2928z" clip-rule="evenodd" fill="var(--yellow)" fill-rule="evenodd"/>
 <defs>
  <clipPath id="clipPath13">
   <rect width="16" height="16" fill="#fff"/>
  </clipPath>
 </defs>
</svg>
