<svg width="16" height="16" version="1.1" viewBox="0 0 16 16" xmlns="http://www.w3.org/2000/svg">
 <path d="m4 2c-1.0986 0-2 0.90136-2 2v6c0 1.0986 0.90134 2 2 2h3.8789l1-1h-4.8789c-0.5582 0-1-0.44183-1-1v-6c0-0.55821 0.44179-1 1-1h8c0.55817 0 1 0.4418 1 1v3.1348c0.22627-0.083795 0.4659-0.12695 0.70508-0.12695 0.098729 0 0.19711 0.011101 0.29492 0.025391v-3.0332c0-1.0987-0.90138-2-2-2h-8zm0.5 11c-0.27614 0-0.49999 0.2238-0.5 0.5-1e-5 0.2761 0.22385 0.5 0.5 0.5h2.5v-1h-2.5z" fill="currentColor"/>
 <path d="m14.412 8.295c-0.3905-0.39053-1.0237-0.39053-1.4142 0l-4.998 4.9979v2.7071h2.7071l4.998-4.9979c0.3905-0.3905 0.3905-1.0237 0-1.4142zm-0.4122 2.9979 0.998-0.9979-1.2929-1.2929-0.998 0.99792zm-2-0.5857 1.2929 1.2928-3 3h-1.2929v-1.2928z" clip-rule="evenodd" fill="var(--yellow)" fill-rule="evenodd"/>
</svg>
