<?xml version="1.0"?><svg xmlns="http://www.w3.org/2000/svg" viewBox="0 0 30 30">    <path d="M 20.853516 2 C 20.590391 2 20.327953 2.1017344 20.126953 2.3027344 L 19.400391 3.0292969 L 21.970703 5.5996094 L 22.697266 4.8730469 C 23.099266 4.4720469 23.099266 3.8219219 22.697266 3.4199219 L 21.580078 2.3027344 C 21.379578 2.1017344 21.116641 2 20.853516 2 z M 18.371094 4.0566406 L 10.542969 11.886719 L 11.314453 12.142578 L 11.570312 13.429688 L 12.857422 13.685547 L 13.113281 14.457031 L 20.943359 6.6289062 L 18.371094 4.0566406 z M 3 8 C 1.897 8 1 8.897 1 10 L 1 20 C 1 21.103 1.897 22 3 22 L 27 22 C 28.103 22 29 21.103 29 20 L 29 10 C 29 8.897 28.103 8 27 8 L 22 8 L 20 10 L 27 10 L 27 20 L 3 20 L 3 10 L 10 10 L 12 8 L 3 8 z M 9.5917969 14.021484 L 9.0195312 15.640625 A 0.257 0.257 0 0 1 9.0195312 15.642578 A 0.257 0.257 0 0 0 9.0175781 15.648438 L 9.015625 15.654297 A 0.257 0.257 0 0 0 9 15.742188 A 0.257 0.257 0 0 0 9.2578125 16 A 0.257 0.257 0 0 0 9.3554688 15.980469 L 10.978516 15.40625 L 9.5917969 14.021484 z"/></svg>