<?xml version="1.0"?><svg xmlns="http://www.w3.org/2000/svg" viewBox="0 0 30 30">    <path d="M 8 3 C 6.895 3 6 3.895 6 5 L 6 25 C 6 26.105 6.895 27 8 27 L 22 27 C 23.105 27 24 26.105 24 25 L 24 16 L 15.414062 16 L 17.707031 18.292969 C 18.098031 18.683969 18.098031 19.316031 17.707031 19.707031 C 17.512031 19.902031 17.256 20 17 20 C 16.744 20 16.487969 19.902031 16.292969 19.707031 L 12.292969 15.707031 C 11.901969 15.316031 11.901969 14.683969 12.292969 14.292969 L 16.292969 10.292969 C 16.683969 9.9019687 17.316031 9.9019687 17.707031 10.292969 C 18.098031 10.683969 18.098031 11.316031 17.707031 11.707031 L 15.414062 14 L 24 14 L 24 9.5 C 24 9.235 23.895031 8.9799688 23.707031 8.7929688 L 18.207031 3.2929688 C 18.019031 3.1049688 17.765 3 17.5 3 L 8 3 z M 24 14 L 24 16 L 28 16 C 28.552 16 29 15.552 29 15 C 29 14.448 28.552 14 28 14 L 24 14 z"/></svg>